<svg version="1.1" xmlns="http://www.w3.org/2000/svg" viewBox="0 0 120.904296875 133.05859375" width="120.904296875" height="133.05859375" class="excalidraw-svg"><!-- svg-source:excalidraw --><metadata></metadata><defs><style class="style-fonts">
      </style></defs><rect x="0" y="0" width="120.904296875" height="133.05859375" fill="#ffffff"></rect><g stroke-linecap="round" transform="translate(10 10) rotate(0 50.4521484375 56.529296875)"><path d="M63.75 14.25 C70.41 22.45, 81.95 32.41, 88.15 42.75 M63.75 14.25 C74.09 25.65, 82.4 36.15, 88.15 42.75 M88.15 42.75 C100.07 58.28, 100.52 57.38, 88.15 71.25 M88.15 42.75 C102.96 55.56, 101.14 55.99, 88.15 71.25 M88.15 71.25 C84.43 79.22, 76.12 82.49, 63.75 98.81 M88.15 71.25 C78.88 82.01, 69.24 93.33, 63.75 98.81 M63.75 98.81 C52.56 111.1, 52.97 114.95, 38.25 98.81 M63.75 98.81 C49.59 113.33, 50.98 113.92, 38.25 98.81 M38.25 98.81 C31.98 90.26, 23.16 81.36, 12.75 71.25 M38.25 98.81 C30.63 90.28, 23.72 81.41, 12.75 71.25 M12.75 71.25 C0.86 56.37, 1.39 56.6, 12.75 42.75 M12.75 71.25 C2.11 55.7, 1.61 57, 12.75 42.75 M12.75 42.75 C18.82 34.76, 26.76 29.4, 38.25 14.25 M12.75 42.75 C19.12 36.36, 23.61 30.66, 38.25 14.25 M38.25 14.25 C51.88 0.22, 49.99 -1.45, 63.75 14.25 M38.25 14.25 C51.69 -1.69, 53.14 0.44, 63.75 14.25" stroke="#1e1e1e" stroke-width="2" fill="none"></path></g></svg>